<svg xmlns="http://www.w3.org/2000/svg" width="720" height="960" viewBox="0 0 720 960" fill="none">
  <g stroke="#b9a785" opacity=".13" stroke-linecap="round">
    <path d="M-30 262C14 242 30 254 51 217S83 220 100 175s32-20 52-46 9-21 37-42 23-21 34-49 41-33 51-58M51 217c-13-30 16-43 12-74S88 117 92 93M101 174c27-7 32 12 53-2s42-2 69-27M-20 718c42-35 57-29 75-68s25-15 51-54 20-58 47-69 30-41 41-60M55 650c-12-32-28-36-20-65s-16-42-24-59M133 549c32-4 29 10 56-8s46 2 70-18M594 986c4-40-20-41 4-74s-10-29 20-61 34-31 25-62 28-34 21-61 32-40 35-73 29-40 43-64M628 840c-37-27-29-11-45-50s-35-23-40-58M664 728c-29-10-18-48-34-62s-22-28-23-40" stroke-width="1.1"/>
    <path d="M-30 267c44-20 64-12 86-47s30-1 49-42 35-20 51-46 13-21 37-42 23-20 35-50 41-32 51-60M-20 724c40-36 60-30 80-70s25-14 51-55 20-59 47-66 31-43 41-66M600 986c3-39-20-42 4-72s-10-31 19-60 34-33 26-64 28-35 20-60 33-40 36-74 26-39 37-58" stroke-width=".45"/>
  </g>
</svg>
